<svg version="1.1" id="Layer_1" xmlns="http://www.w3.org/2000/svg" xmlns:xlink="http://www.w3.org/1999/xlink" viewBox="0 0 512 512" xml:space="preserve" fill="#000000"><g id="SVGRepo_bgCarrier" stroke-width="0"></g><g id="SVGRepo_tracerCarrier" stroke-linecap="round" stroke-linejoin="round"></g><g id="SVGRepo_iconCarrier"> <circle style="fill:#E6E5E5;" cx="256" cy="256" r="256"></circle> <g> <path style="fill:#062d60;" d="M459.96,398.712V122.76c0-6.6-5.4-12-12-12H64.112c-6.6,0-12,5.4-12,12v275.952 C52.12,398.712,460.968,398.712,459.96,398.712z"></path> <rect x="67.112" y="125.76" style="fill:#062d60;" width="377.84" height="257.92"></rect> </g> <rect x="16" y="398.712" style="fill:#D8D8D8;" width="479.92" height="7.504"></rect> <polygon style="fill:#AAAAAA;" points="472.008,421.208 40.08,421.208 16.08,406.216 496,406.216 "></polygon> <g style="opacity:0.7;"> <path style="fill:#FFFFFF;" d="M296.304,398.712h-80.688c0.768,4.208,4.52,7.504,9.216,7.504h62.248 C291.784,406.216,295.544,402.92,296.304,398.712z"></path> </g> <g> <circle style="fill:#E6E5E5;" cx="167.808" cy="144" r="8"></circle> <circle style="fill:#E6E5E5;" cx="135.808" cy="144" r="8"></circle> <circle style="fill:#E6E5E5;" cx="103.808" cy="144" r="8"></circle> <rect x="191.792" y="140.016" style="fill:#E6E5E5;" width="224" height="8"></rect> <rect x="288.4" y="196" style="fill:#E6E5E5;" width="111.416" height="25.336"></rect> <rect x="288.4" y="238.224" style="fill:#E6E5E5;" width="111.416" height="25.336"></rect> <rect x="288.4" y="280.48" style="fill:#E6E5E5;" width="111.416" height="25.336"></rect> <rect x="288.4" y="322.64" style="fill:#E6E5E5;" width="111.416" height="25.336"></rect> <rect x="111.792" y="340" style="fill:#E6E5E5;" width="147.696" height="8"></rect> <circle style="fill:#E6E5E5;" cx="185.6" cy="254.592" r="60.408"></circle> </g> <path style="fill:#e5e65e;" d="M185.64,254.592l-50.528,33.088C145.904,304.128,164.496,315,185.64,315 c33.36,0,60.408-27.048,60.408-60.408H185.64z"></path> <path style="fill:#7d93cc;" d="M206.952,198.064l-21.32,56.528h60.408C246.048,228.736,229.8,206.68,206.952,198.064z"></path> </g></svg>