<svg version="1.1" id="Layer_1" xmlns="http://www.w3.org/2000/svg" xmlns:xlink="http://www.w3.org/1999/xlink" viewBox="0 0 512 512" xml:space="preserve" fill="#000000"><g id="SVGRepo_bgCarrier" stroke-width="0"></g><g id="SVGRepo_tracerCarrier" stroke-linecap="round" stroke-linejoin="round"></g><g id="SVGRepo_iconCarrier"> <circle style="fill:#E6E5E5;" cx="256" cy="256" r="256"></circle> <g> <path style="fill:#062d60;" d="M459.96,398.712V122.76c0-6.6-5.4-12-12-12H64.112c-6.6,0-12,5.4-12,12v275.952 C52.12,398.712,460.968,398.712,459.96,398.712z"></path> <rect x="67.112" y="125.76" style="fill:#062d60;" width="377.84" height="257.92"></rect> </g> <rect x="16" y="398.712" style="fill:#D8D8D8;" width="479.92" height="7.504"></rect> <polygon style="fill:#AAAAAA;" points="472.008,421.208 40.08,421.208 16.08,406.216 496,406.216 "></polygon> <g style="opacity:0.7;"> <path style="fill:#FFFFFF;" d="M296.304,398.712h-80.688c0.768,4.208,4.52,7.504,9.216,7.504h62.248 C291.784,406.216,295.544,402.92,296.304,398.712z"></path> </g> <g> <circle style="fill:#E6E5E5;" cx="167.888" cy="144" r="8"></circle> <circle style="fill:#E6E5E5;" cx="135.888" cy="144" r="8"></circle> <circle style="fill:#E6E5E5;" cx="103.888" cy="144" r="8"></circle> <rect x="191.872" y="140.016" style="fill:#E6E5E5;" width="224" height="8"></rect> <rect x="367.872" y="320" style="fill:#E6E5E5;" width="32" height="8"></rect> <rect x="316.672" y="320" style="fill:#E6E5E5;" width="32" height="8"></rect> <rect x="265.44" y="320" style="fill:#E6E5E5;" width="32" height="8"></rect> <rect x="214.272" y="320" style="fill:#E6E5E5;" width="32" height="8"></rect> <rect x="163.072" y="320" style="fill:#E6E5E5;" width="32" height="8"></rect> <rect x="111.872" y="320" style="fill:#E6E5E5;" width="32" height="8"></rect> </g> <rect x="111.88" y="352" style="fill:#e5e65e;" width="287.992" height="8"></rect> <polygon style="fill:#E6E5E5;" points="280.08,270.352 224.712,214.496 171.232,267.976 166.52,263.264 224.728,205.056 280.08,260.888 333.072,207.432 337.8,212.12 "></polygon> <circle style="fill:#7d93cc;" cx="168.88" cy="265.6" r="19.488"></circle> <circle style="fill:#FFFFFF;" cx="168.88" cy="265.6" r="8.576"></circle> <circle style="fill:#7d93cc;" cx="280.96" cy="265.6" r="19.488"></circle> <circle style="fill:#FFFFFF;" cx="280.96" cy="265.6" r="8.576"></circle> <circle style="fill:#e5e65e;" cx="224.72" cy="209.76" r="27.176"></circle> <circle style="fill:#FFFFFF;" cx="224.72" cy="209.76" r="11.96"></circle> <circle style="fill:#e5e65e;" cx="335.44" cy="209.76" r="27.176"></circle> <circle style="fill:#FFFFFF;" cx="335.44" cy="209.76" r="11.96"></circle> </g></svg>