<svg  version="1.1" id="Layer_1" xmlns="http://www.w3.org/2000/svg"
                                xmlns:xlink="http://www.w3.org/1999/xlink" viewBox="0 0 512 512" xml:space="preserve"
                                fill="#000000">
                                <g id="SVGRepo_bgCarrier" stroke-width="0"></g>
                                <g id="SVGRepo_tracerCarrier" stroke-linecap="round" stroke-linejoin="round"></g>
                                <g id="SVGRepo_iconCarrier">
                                    <circle style="fill:#E6E5E5;" cx="256" cy="256" r="256"></circle>
                                    <g>
                                        <path style="fill:#062d60;"
                                            d="M459.96,398.712V122.76c0-6.6-5.4-12-12-12H64.112c-6.6,0-12,5.4-12,12v275.952 C52.12,398.712,460.968,398.712,459.96,398.712z">
                                        </path>
                                        <rect x="67.112" y="125.76" style="fill:#062d60;" width="377.84"
                                            height="257.92"></rect>
                                    </g>
                                    <rect x="16" y="398.712" style="fill:#D8D8D8;" width="479.92" height="7.504"></rect>
                                    <polygon style="fill:#AAAAAA;"
                                        points="472.008,421.208 40.08,421.208 16.08,406.216 496,406.216 "></polygon>
                                    <g style="opacity:0.7;">
                                        <path style="fill:#FFFFFF;"
                                            d="M296.304,398.712h-80.688c0.768,4.208,4.52,7.504,9.216,7.504h62.248 C291.784,406.216,295.544,402.92,296.304,398.712z">
                                        </path>
                                    </g>
                                    <g>
                                        <circle style="fill:#E6E5E5;" cx="168" cy="144" r="8"></circle>
                                        <circle style="fill:#E6E5E5;" cx="136" cy="144" r="8"></circle>
                                        <circle style="fill:#E6E5E5;" cx="104" cy="144" r="8"></circle>
                                        <rect x="192" y="140.016" style="fill:#E6E5E5;" width="224" height="8"></rect>
                                        <rect x="384" y="309.688" style="fill:#E6E5E5;" width="32" height="8"></rect>
                                        <rect x="332.8" y="309.688" style="fill:#E6E5E5;" width="32" height="8"></rect>
                                        <rect x="281.6" y="309.688" style="fill:#E6E5E5;" width="32" height="8"></rect>
                                    </g>
                                    <rect x="281.6" y="197.688" style="fill:#7d93cc;" width="134.4" height="8"></rect>
                                    <g>
                                        <rect x="281.6" y="221.688" style="fill:#E6E5E5;" width="134.4" height="8">
                                        </rect>
                                        <rect x="281.6" y="245.688" style="fill:#E6E5E5;" width="134.4" height="8">
                                        </rect>
                                        <rect x="281.6" y="269.688" style="fill:#E6E5E5;" width="134.4" height="8">
                                        </rect>
                                    </g>
                                    <g>
                                        <rect x="281.6" y="341.688" style="fill:#e5e65e;" width="134.4" height="8">
                                        </rect>
                                        <rect x="96.08" y="305.76" style="fill:#e5e65e;" width="19.92" height="43.696">
                                        </rect>
                                    </g>
                                    <rect x="128.48" y="280.8" style="fill:#7d93cc;" width="19.92" height="68.672">
                                    </rect>
                                    <rect x="160.8" y="252.72" style="fill:#e5e65e;" width="19.92" height="96.72">
                                    </rect>
                                    <rect x="193.2" y="224.64" style="fill:#7d93cc;" width="19.92" height="124.848">
                                    </rect>
                                    <rect x="225.6" y="205.896" style="fill:#e5e65e;" width="19.92" height="143.576">
                                    </rect>
                                </g>
                            </svg>